<svg width="33" height="32" viewBox="0 0 33 32" fill="none" xmlns="http://www.w3.org/2000/svg">
<path d="M27.4993 16V24C27.4993 26.9455 25.1115 29.3333 22.166 29.3333H11.4993C8.55383 29.3333 6.16602 26.9455 6.16602 24V16" stroke="#141718" stroke-width="2.5" stroke-linejoin="round"/>
<path d="M23.1916 2.66669H10.475C8.05182 2.66669 5.87281 4.32636 4.97288 6.85742L3.96223 9.69985C3.6563 10.5603 3.44483 11.481 3.66797 12.3665C4.19643 14.4637 5.91093 16 7.94439 16C10.399 16 12.3888 13.7614 12.3888 11C12.3888 13.7614 14.3787 16 16.8333 16C19.2879 16 21.2777 13.7614 21.2777 11C21.2777 13.7614 23.2676 16 25.7222 16C27.7556 16 29.4701 14.4637 29.9986 12.3665C30.2217 11.481 30.0103 10.5603 29.7043 9.69985L28.6937 6.85742C27.7938 4.32636 25.6147 2.66669 23.1916 2.66669Z" stroke="#141718" stroke-width="2.5" stroke-linejoin="round"/>
<path d="M12.833 25.3333C12.833 23.1242 14.6239 21.3333 16.833 21.3333C19.0421 21.3333 20.833 23.1242 20.833 25.3333V29.3333H12.833V25.3333Z" stroke="#141718" stroke-width="2.5" stroke-linejoin="round"/>
</svg>
